<svg width="348" height="72" viewBox="0 0 348 72" fill="none" xmlns="http://www.w3.org/2000/svg">
<g filter="url(#filter0_f_0_1)">
<path d="M10.95 18.0634C4.18181 33.2529 4.52036 47.7698 10.95 53.5074C17.3796 59.2451 108.109 65.8282 170.678 65.9973C235.487 66.1724 328.715 57.8948 336.16 53.5074C343.605 49.12 344.281 25.7268 336.16 18.0634C328.038 10.3999 235.468 6.08294 170.678 6.24867C108.13 6.40866 17.7182 2.87381 10.95 18.0634Z" stroke="#C200C2" stroke-width="3"/>
</g>
<g filter="url(#filter1_f_0_1)">
<path d="M10.95 18.0634C4.18181 33.2529 4.52036 47.7698 10.95 53.5074C17.3796 59.2451 108.109 65.8282 170.678 65.9973C235.487 66.1724 328.715 57.8948 336.16 53.5074C343.605 49.12 344.281 25.7268 336.16 18.0634C328.038 10.3999 235.468 6.08294 170.678 6.24867C108.13 6.40866 17.7182 2.87381 10.95 18.0634Z" stroke="#754D73" stroke-width="3"/>
</g>
<path d="M10.95 18.0634C4.18181 33.2529 4.52036 47.7698 10.95 53.5074C17.3796 59.2451 108.109 65.8282 170.678 65.9973C235.487 66.1724 328.715 57.8948 336.16 53.5074C343.605 49.12 344.281 25.7268 336.16 18.0634C328.038 10.3999 235.468 6.08294 170.678 6.24867C108.13 6.40866 17.7182 2.87381 10.95 18.0634Z" stroke="#3C171E" stroke-width="3"/>
<path d="M118.575 45.25C116.692 45.25 115.125 44.625 113.875 43.375C112.642 42.1083 112.025 40.5667 112.025 38.75C112.025 36.9333 112.642 35.4 113.875 34.15C115.125 32.8833 116.692 32.25 118.575 32.25C120.442 32.25 121.992 32.8833 123.225 34.15C124.475 35.4 125.1 36.9333 125.1 38.75C125.1 40.5667 124.475 42.1083 123.225 43.375C121.992 44.625 120.442 45.25 118.575 45.25ZM115.425 41.95C116.242 42.8167 117.292 43.25 118.575 43.25C119.858 43.25 120.9 42.8167 121.7 41.95C122.5 41.0833 122.9 40.0167 122.9 38.75C122.9 37.4833 122.5 36.4167 121.7 35.55C120.9 34.6833 119.858 34.25 118.575 34.25C117.292 34.25 116.242 34.6833 115.425 35.55C114.625 36.4167 114.225 37.4833 114.225 38.75C114.225 40.0167 114.625 41.0833 115.425 41.95ZM130.219 45V34.475H126.244V32.5H136.519V34.475H132.369V45H130.219ZM138.977 45V32.5H149.827V45H147.677V34.475H141.127V45H138.977ZM156.02 50.225H153.87V32.5H156.02V34.425C156.453 33.7917 157.061 33.275 157.845 32.875C158.645 32.4583 159.503 32.25 160.42 32.25C162.153 32.25 163.603 32.8833 164.77 34.15C165.953 35.4167 166.545 36.95 166.545 38.75C166.545 40.55 165.953 42.0833 164.77 43.35C163.603 44.6167 162.153 45.25 160.42 45.25C159.503 45.25 158.645 45.05 157.845 44.65C157.061 44.2333 156.453 43.7083 156.02 43.075V50.225ZM157.045 41.975C157.845 42.8417 158.861 43.275 160.095 43.275C161.328 43.275 162.345 42.8417 163.145 41.975C163.945 41.1083 164.345 40.0333 164.345 38.75C164.345 37.4667 163.945 36.3917 163.145 35.525C162.345 34.6583 161.328 34.225 160.095 34.225C158.861 34.225 157.845 34.6583 157.045 35.525C156.245 36.3917 155.845 37.4667 155.845 38.75C155.845 40.0333 156.245 41.1083 157.045 41.975ZM174.791 45.25C173.058 45.25 171.6 44.6167 170.416 43.35C169.25 42.0833 168.666 40.55 168.666 38.75C168.666 36.95 169.25 35.4167 170.416 34.15C171.6 32.8833 173.058 32.25 174.791 32.25C175.708 32.25 176.558 32.4583 177.341 32.875C178.141 33.275 178.758 33.7917 179.191 34.425V32.5H181.341V45H179.191V43.075C178.758 43.7083 178.141 44.2333 177.341 44.65C176.558 45.05 175.708 45.25 174.791 45.25ZM175.116 43.275C176.35 43.275 177.366 42.8417 178.166 41.975C178.966 41.1083 179.366 40.0333 179.366 38.75C179.366 37.4667 178.966 36.3917 178.166 35.525C177.366 34.6583 176.35 34.225 175.116 34.225C173.866 34.225 172.841 34.6583 172.041 35.525C171.241 36.3917 170.841 37.4667 170.841 38.75C170.841 40.0333 171.241 41.1083 172.041 41.975C172.841 42.8417 173.866 43.275 175.116 43.275ZM185.388 45V32.5H190.838C192.222 32.5 193.28 32.8083 194.013 33.425C194.747 34.0417 195.113 34.8667 195.113 35.9C195.113 36.8833 194.705 37.6917 193.888 38.325C195.255 38.9917 195.938 40.0083 195.938 41.375C195.938 42.425 195.563 43.2917 194.813 43.975C194.063 44.6583 192.938 45 191.438 45H185.388ZM187.538 43.125H191.563C192.23 43.125 192.755 42.9583 193.138 42.625C193.538 42.2917 193.738 41.8333 193.738 41.25C193.738 40.6667 193.538 40.2167 193.138 39.9C192.755 39.5667 192.23 39.4 191.563 39.4H187.538V43.125ZM187.538 37.675H191.013C192.297 37.675 192.938 37.1167 192.938 36C192.938 35.4167 192.755 35 192.388 34.75C192.022 34.4833 191.563 34.35 191.013 34.35H187.538V37.675ZM200.936 45H199.011V32.5H201.161V41.675L208.211 32.5H210.111V45H207.986V35.825L200.936 45ZM216.572 45V34.475H212.597V32.5H222.872V34.475H218.722V45H216.572ZM225.33 45V32.5H227.48V37H230.38C231.88 37 233.013 37.3917 233.78 38.175C234.563 38.9583 234.955 39.8917 234.955 40.975C234.955 42.075 234.563 43.025 233.78 43.825C232.996 44.6083 231.855 45 230.355 45H225.33ZM227.48 38.95V43.05H230.28C231.08 43.05 231.696 42.8667 232.13 42.5C232.58 42.1333 232.805 41.625 232.805 40.975C232.805 40.325 232.588 39.825 232.155 39.475C231.721 39.125 231.105 38.95 230.305 38.95H227.48Z" fill="black"/>
<defs>
<filter id="filter0_f_0_1" x="0.5" y="0.5" width="347" height="71" filterUnits="userSpaceOnUse" color-interpolation-filters="sRGB">
<feFlood flood-opacity="0" result="BackgroundImageFix"/>
<feBlend mode="normal" in="SourceGraphic" in2="BackgroundImageFix" result="shape"/>
<feGaussianBlur stdDeviation="2" result="effect1_foregroundBlur_0_1"/>
</filter>
<filter id="filter1_f_0_1" x="0.5" y="0.5" width="347" height="71" filterUnits="userSpaceOnUse" color-interpolation-filters="sRGB">
<feFlood flood-opacity="0" result="BackgroundImageFix"/>
<feBlend mode="normal" in="SourceGraphic" in2="BackgroundImageFix" result="shape"/>
<feGaussianBlur stdDeviation="2" result="effect1_foregroundBlur_0_1"/>
</filter>
</defs>
</svg>
