<svg width="510" height="103" viewBox="0 0 510 103" fill="none" xmlns="http://www.w3.org/2000/svg">
<g filter="url(#filter0_f_0_1)">
<path d="M13.9998 24.9987C3.99977 47.4975 4.49998 69 13.9998 77.4986C23.4997 85.9973 157.554 95.7482 250 95.9986C345.756 96.2581 483.499 83.9973 494.5 77.4986C505.5 71 506.499 36.3498 494.5 24.9987C482.5 13.6475 345.727 7.25323 250 7.4987C157.583 7.73568 23.9999 2.49985 13.9998 24.9987Z" stroke="#C200C2" stroke-width="5"/>
</g>
<g filter="url(#filter1_f_0_1)">
<path d="M13.9998 24.9987C3.99977 47.4975 4.49998 69 13.9998 77.4986C23.4997 85.9973 157.554 95.7482 250 95.9986C345.756 96.2581 483.499 83.9973 494.5 77.4986C505.5 71 506.499 36.3498 494.5 24.9987C482.5 13.6475 345.727 7.25323 250 7.4987C157.583 7.73568 23.9999 2.49985 13.9998 24.9987Z" stroke="#754D73" stroke-width="5"/>
</g>
<path d="M13.9998 24.9987C3.99977 47.4975 4.49998 69 13.9998 77.4986C23.4997 85.9973 157.554 95.7482 250 95.9986C345.756 96.2581 483.499 83.9973 494.5 77.4986C505.5 71 506.499 36.3498 494.5 24.9987C482.5 13.6475 345.727 7.25323 250 7.4987C157.583 7.73568 23.9999 2.49985 13.9998 24.9987Z" stroke="#3C171E" stroke-width="5"/>
<path d="M158.15 70.5C154.383 70.5 151.25 69.25 148.75 66.75C146.283 64.2167 145.05 61.1333 145.05 57.5C145.05 53.8667 146.283 50.8 148.75 48.3C151.25 45.7667 154.383 44.5 158.15 44.5C161.883 44.5 164.983 45.7667 167.45 48.3C169.95 50.8 171.2 53.8667 171.2 57.5C171.2 61.1333 169.95 64.2167 167.45 66.75C164.983 69.25 161.883 70.5 158.15 70.5ZM151.85 63.9C153.483 65.6333 155.583 66.5 158.15 66.5C160.717 66.5 162.8 65.6333 164.4 63.9C166 62.1667 166.8 60.0333 166.8 57.5C166.8 54.9667 166 52.8333 164.4 51.1C162.8 49.3667 160.717 48.5 158.15 48.5C155.583 48.5 153.483 49.3667 151.85 51.1C150.25 52.8333 149.45 54.9667 149.45 57.5C149.45 60.0333 150.25 62.1667 151.85 63.9ZM181.439 70V48.95H173.489V45H194.039V48.95H185.739V70H181.439ZM198.954 45H202.904L212.154 57.3L221.454 45H225.404V70H221.104V51.95L212.154 63.75L203.254 51.95V70H198.954V45ZM244.175 70.5C240.541 70.5 237.525 69.2667 235.125 66.8C232.758 64.3333 231.575 61.2333 231.575 57.5C231.575 53.7333 232.725 50.6333 235.025 48.2C237.358 45.7333 240.441 44.5 244.275 44.5C248.141 44.5 251.175 45.8667 253.375 48.6C255.575 51.3333 256.541 54.6833 256.275 58.65H235.925C235.991 60.9167 236.825 62.8167 238.425 64.35C240.025 65.85 241.958 66.6 244.225 66.6C247.625 66.6 250.041 65.2 251.475 62.4H255.875C255.241 64.7333 253.891 66.6667 251.825 68.2C249.758 69.7333 247.208 70.5 244.175 70.5ZM249.075 50.1C247.708 48.9 246.058 48.3 244.125 48.3C242.191 48.3 240.458 48.8833 238.925 50.05C237.425 51.2167 236.491 52.95 236.125 55.25H251.725C251.325 52.9833 250.441 51.2667 249.075 50.1ZM262.48 70V45H266.78V55.3H280.43V45H284.73V70H280.43V59.2H266.78V70H262.48ZM296.701 70H292.851V45H297.151V63.35L311.251 45H315.051V70H310.801V51.65L296.701 70ZM327.972 70V48.95H320.022V45H340.572V48.95H332.272V70H327.972ZM345.488 70V45H349.788V54H355.588C358.588 54 360.854 54.7833 362.388 56.35C363.954 57.9167 364.738 59.7833 364.738 61.95C364.738 64.15 363.954 66.05 362.388 67.65C360.821 69.2167 358.538 70 355.538 70H345.488ZM349.788 57.9V66.1H355.388C356.988 66.1 358.221 65.7333 359.088 65C359.988 64.2667 360.438 63.25 360.438 61.95C360.438 60.65 360.004 59.65 359.138 58.95C358.271 58.25 357.038 57.9 355.438 57.9H349.788Z" fill="black"/>
<defs>
<filter id="filter0_f_0_1" x="0.186157" y="0.630371" width="509.443" height="101.873" filterUnits="userSpaceOnUse" color-interpolation-filters="sRGB">
<feFlood flood-opacity="0" result="BackgroundImageFix"/>
<feBlend mode="normal" in="SourceGraphic" in2="BackgroundImageFix" result="shape"/>
<feGaussianBlur stdDeviation="2" result="effect1_foregroundBlur_0_1"/>
</filter>
<filter id="filter1_f_0_1" x="0.186157" y="0.630371" width="509.443" height="101.873" filterUnits="userSpaceOnUse" color-interpolation-filters="sRGB">
<feFlood flood-opacity="0" result="BackgroundImageFix"/>
<feBlend mode="normal" in="SourceGraphic" in2="BackgroundImageFix" result="shape"/>
<feGaussianBlur stdDeviation="2" result="effect1_foregroundBlur_0_1"/>
</filter>
</defs>
</svg>
