<svg width="348" height="72" viewBox="0 0 348 72" fill="none" xmlns="http://www.w3.org/2000/svg">
<g filter="url(#filter0_f_0_1)">
<path d="M10.95 18.0634C4.18181 33.2529 4.52036 47.7698 10.95 53.5074C17.3796 59.2451 108.109 65.8282 170.678 65.9973C235.487 66.1724 328.715 57.8948 336.16 53.5074C343.605 49.12 344.281 25.7268 336.16 18.0634C328.038 10.3999 235.468 6.08294 170.678 6.24867C108.13 6.40866 17.7182 2.87381 10.95 18.0634Z" stroke="#C200C2" stroke-width="3"/>
</g>
<g filter="url(#filter1_f_0_1)">
<path d="M10.95 18.0634C4.18181 33.2529 4.52036 47.7698 10.95 53.5074C17.3796 59.2451 108.109 65.8282 170.678 65.9973C235.487 66.1724 328.715 57.8948 336.16 53.5074C343.605 49.12 344.281 25.7268 336.16 18.0634C328.038 10.3999 235.468 6.08294 170.678 6.24867C108.13 6.40866 17.7182 2.87381 10.95 18.0634Z" stroke="#754D73" stroke-width="3"/>
</g>
<path d="M10.95 18.0634C4.18181 33.2529 4.52036 47.7698 10.95 53.5074C17.3796 59.2451 108.109 65.8282 170.678 65.9973C235.487 66.1724 328.715 57.8948 336.16 53.5074C343.605 49.12 344.281 25.7268 336.16 18.0634C328.038 10.3999 235.468 6.08294 170.678 6.24867C108.13 6.40866 17.7182 2.87381 10.95 18.0634Z" stroke="#3C171E" stroke-width="3"/>
<path d="M140.025 45V32.5H145.475C146.858 32.5 147.917 32.8083 148.65 33.425C149.383 34.0417 149.75 34.8667 149.75 35.9C149.75 36.8833 149.342 37.6917 148.525 38.325C149.892 38.9917 150.575 40.0083 150.575 41.375C150.575 42.425 150.2 43.2917 149.45 43.975C148.7 44.6583 147.575 45 146.075 45H140.025ZM142.175 43.125H146.2C146.867 43.125 147.392 42.9583 147.775 42.625C148.175 42.2917 148.375 41.8333 148.375 41.25C148.375 40.6667 148.175 40.2167 147.775 39.9C147.392 39.5667 146.867 39.4 146.2 39.4H142.175V43.125ZM142.175 37.675H145.65C146.933 37.675 147.575 37.1167 147.575 36C147.575 35.4167 147.392 35 147.025 34.75C146.658 34.4833 146.2 34.35 145.65 34.35H142.175V37.675ZM165.198 45V32.5H167.348V45H165.198ZM153.648 45V32.5H155.798V37H158.698C160.198 37 161.331 37.3917 162.098 38.175C162.881 38.9583 163.273 39.8917 163.273 40.975C163.273 42.075 162.881 43.025 162.098 43.825C161.315 44.6083 160.173 45 158.673 45H153.648ZM155.798 38.95V43.05H158.598C159.398 43.05 160.015 42.8667 160.448 42.5C160.898 42.1333 161.123 41.625 161.123 40.975C161.123 40.325 160.906 39.825 160.473 39.475C160.04 39.125 159.423 38.95 158.623 38.95H155.798ZM173.346 45H171.421V32.5H173.571V41.675L180.621 32.5H182.521V45H180.396V35.825L173.346 45ZM179.996 29.45C179.246 30.1833 178.305 30.55 177.171 30.55C176.038 30.55 175.088 30.1833 174.321 29.45C173.571 28.7167 173.196 27.7583 173.196 26.575V26.25H174.896V26.575C174.896 27.375 175.105 28 175.521 28.45C175.955 28.8833 176.505 29.1 177.171 29.1C177.838 29.1 178.38 28.8833 178.796 28.45C179.23 28 179.446 27.375 179.446 26.575V26.25H181.146V26.575C181.146 27.7583 180.763 28.7167 179.996 29.45ZM188.982 45V34.475H185.007V32.5H195.282V34.475H191.132V45H188.982ZM199.665 45H197.74V32.5H199.89V41.675L206.94 32.5H208.84V45H206.715V35.825L199.665 45Z" fill="black"/>
<defs>
<filter id="filter0_f_0_1" x="0.5" y="0.5" width="347" height="71" filterUnits="userSpaceOnUse" color-interpolation-filters="sRGB">
<feFlood flood-opacity="0" result="BackgroundImageFix"/>
<feBlend mode="normal" in="SourceGraphic" in2="BackgroundImageFix" result="shape"/>
<feGaussianBlur stdDeviation="2" result="effect1_foregroundBlur_0_1"/>
</filter>
<filter id="filter1_f_0_1" x="0.5" y="0.5" width="347" height="71" filterUnits="userSpaceOnUse" color-interpolation-filters="sRGB">
<feFlood flood-opacity="0" result="BackgroundImageFix"/>
<feBlend mode="normal" in="SourceGraphic" in2="BackgroundImageFix" result="shape"/>
<feGaussianBlur stdDeviation="2" result="effect1_foregroundBlur_0_1"/>
</filter>
</defs>
</svg>
