<svg width="502" height="95" viewBox="0 0 502 95" fill="none" xmlns="http://www.w3.org/2000/svg">
<path d="M9.99982 20.9987C-0.000234604 43.4975 0.499982 65 9.99982 73.4986C19.4997 81.9973 153.554 91.7482 246 91.9986C341.756 92.2581 479.499 79.9973 490.5 73.4986C501.5 67 502.499 32.3498 490.5 20.9987C478.5 9.64754 341.727 3.25323 246 3.4987C153.583 3.73568 19.9999 -1.50015 9.99982 20.9987Z" stroke="#3C171E" stroke-width="5"/>
<path d="M74 66.5C71.4333 66.5 69.1833 65.8667 67.25 64.6C65.35 63.3333 64.1667 61.55 63.7 59.25H68.05C68.8833 61.65 70.8667 62.85 74 62.85C75.8333 62.85 77.2167 62.4667 78.15 61.7C79.0833 60.9333 79.55 59.9333 79.55 58.7C79.55 57.4667 79.0833 56.5 78.15 55.8C77.25 55.1 75.95 54.75 74.25 54.75H71.35V51.25H74.25C75.6167 51.25 76.7 50.95 77.5 50.35C78.3333 49.75 78.75 48.8667 78.75 47.7C78.75 46.5667 78.3167 45.6833 77.45 45.05C76.5833 44.4167 75.4167 44.1 73.95 44.1C71.05 44.1 69.2333 45.2667 68.5 47.6H64.25C64.7167 45.3 65.85 43.55 67.65 42.35C69.45 41.1167 71.5667 40.5 74 40.5C76.8 40.5 78.9833 41.1667 80.55 42.5C82.1167 43.8 82.9 45.45 82.9 47.45C82.9 49.8833 81.8667 51.7 79.8 52.9C82.5333 54.1333 83.9 56.1833 83.9 59.05C83.9 61.15 83.0333 62.9167 81.3 64.35C79.5667 65.7833 77.1333 66.5 74 66.5ZM100.569 66.5C97.1021 66.5 94.1854 65.2333 91.8188 62.7C89.4854 60.1667 88.3188 57.1 88.3188 53.5C88.3188 49.9 89.4854 46.8333 91.8188 44.3C94.1854 41.7667 97.1021 40.5 100.569 40.5C102.402 40.5 104.102 40.9167 105.669 41.75C107.269 42.55 108.502 43.5833 109.369 44.85V41H113.669V66H109.369V62.15C108.502 63.4167 107.269 64.4667 105.669 65.3C104.102 66.1 102.402 66.5 100.569 66.5ZM101.219 62.55C103.685 62.55 105.719 61.6833 107.319 59.95C108.919 58.2167 109.719 56.0667 109.719 53.5C109.719 50.9333 108.919 48.7833 107.319 47.05C105.719 45.3167 103.685 44.45 101.219 44.45C98.7188 44.45 96.6688 45.3167 95.0688 47.05C93.4688 48.7833 92.6688 50.9333 92.6688 53.5C92.6688 56.0667 93.4688 58.2167 95.0688 59.95C96.6688 61.6833 98.7188 62.55 101.219 62.55ZM133.763 66.5C129.83 66.5 126.68 65.2 124.313 62.6C121.98 60 120.813 56.5833 120.813 52.35V49.8C120.813 43.6667 121.913 39.0833 124.113 36.05C126.313 32.9833 129.913 30.9667 134.913 30L144.213 28.3V32.4L135.863 33.95C132.296 34.5833 129.713 35.7833 128.113 37.55C126.546 39.3167 125.563 41.9167 125.163 45.35C127.33 42.45 130.396 41 134.363 41C138.13 41 141.146 42.2 143.413 44.6C145.713 47 146.863 49.9333 146.863 53.4C146.863 57.0667 145.613 60.1667 143.113 62.7C140.646 65.2333 137.53 66.5 133.763 66.5ZM127.563 59.95C129.163 61.65 131.23 62.5 133.763 62.5C136.296 62.5 138.38 61.65 140.013 59.95C141.646 58.25 142.463 56.0667 142.463 53.4C142.463 50.9 141.646 48.8667 140.013 47.3C138.413 45.7 136.363 44.9 133.863 44.9C131.296 44.9 129.196 45.7167 127.563 47.35C125.963 48.95 125.163 50.9667 125.163 53.4C125.163 56.0667 125.963 58.25 127.563 59.95ZM157.313 76.45H153.013V41H157.313V44.85C158.18 43.5833 159.396 42.55 160.963 41.75C162.563 40.9167 164.28 40.5 166.113 40.5C169.58 40.5 172.48 41.7667 174.813 44.3C177.18 46.8333 178.363 49.9 178.363 53.5C178.363 57.1 177.18 60.1667 174.813 62.7C172.48 65.2333 169.58 66.5 166.113 66.5C164.28 66.5 162.563 66.1 160.963 65.3C159.396 64.4667 158.18 63.4167 157.313 62.15V76.45ZM159.363 59.95C160.963 61.6833 162.996 62.55 165.463 62.55C167.93 62.55 169.963 61.6833 171.563 59.95C173.163 58.2167 173.963 56.0667 173.963 53.5C173.963 50.9333 173.163 48.7833 171.563 47.05C169.963 45.3167 167.93 44.45 165.463 44.45C162.996 44.45 160.963 45.3167 159.363 47.05C157.763 48.7833 156.963 50.9333 156.963 53.5C156.963 56.0667 157.763 58.2167 159.363 59.95ZM195.656 66.5C191.889 66.5 188.756 65.25 186.256 62.75C183.789 60.2167 182.556 57.1333 182.556 53.5C182.556 49.8667 183.789 46.8 186.256 44.3C188.756 41.7667 191.889 40.5 195.656 40.5C199.389 40.5 202.489 41.7667 204.956 44.3C207.456 46.8 208.706 49.8667 208.706 53.5C208.706 57.1333 207.456 60.2167 204.956 62.75C202.489 65.25 199.389 66.5 195.656 66.5ZM189.356 59.9C190.989 61.6333 193.089 62.5 195.656 62.5C198.223 62.5 200.306 61.6333 201.906 59.9C203.506 58.1667 204.306 56.0333 204.306 53.5C204.306 50.9667 203.506 48.8333 201.906 47.1C200.306 45.3667 198.223 44.5 195.656 44.5C193.089 44.5 190.989 45.3667 189.356 47.1C187.756 48.8333 186.956 50.9667 186.956 53.5C186.956 56.0333 187.756 58.1667 189.356 59.9ZM214.878 66V41H219.178V51.3H232.828V41H237.128V66H232.828V55.2H219.178V66H214.878ZM249.099 66H245.249V41H249.549V59.35L263.649 41H267.449V66H263.199V47.65L249.099 66ZM279.92 76.45H275.62V41H279.92V44.85C280.787 43.5833 282.004 42.55 283.57 41.75C285.17 40.9167 286.887 40.5 288.72 40.5C292.187 40.5 295.087 41.7667 297.42 44.3C299.787 46.8333 300.97 49.9 300.97 53.5C300.97 57.1 299.787 60.1667 297.42 62.7C295.087 65.2333 292.187 66.5 288.72 66.5C286.887 66.5 285.17 66.1 283.57 65.3C282.004 64.4667 280.787 63.4167 279.92 62.15V76.45ZM281.97 59.95C283.57 61.6833 285.604 62.55 288.07 62.55C290.537 62.55 292.57 61.6833 294.17 59.95C295.77 58.2167 296.57 56.0667 296.57 53.5C296.57 50.9333 295.77 48.7833 294.17 47.05C292.57 45.3167 290.537 44.45 288.07 44.45C285.604 44.45 283.57 45.3167 281.97 47.05C280.37 48.7833 279.57 50.9333 279.57 53.5C279.57 56.0667 280.37 58.2167 281.97 59.95ZM318.263 66.5C314.497 66.5 311.363 65.25 308.863 62.75C306.397 60.2167 305.163 57.1333 305.163 53.5C305.163 49.8667 306.397 46.8 308.863 44.3C311.363 41.7667 314.497 40.5 318.263 40.5C321.997 40.5 325.097 41.7667 327.563 44.3C330.063 46.8 331.313 49.8667 331.313 53.5C331.313 57.1333 330.063 60.2167 327.563 62.75C325.097 65.25 321.997 66.5 318.263 66.5ZM311.963 59.9C313.597 61.6333 315.697 62.5 318.263 62.5C320.83 62.5 322.913 61.6333 324.513 59.9C326.113 58.1667 326.913 56.0333 326.913 53.5C326.913 50.9667 326.113 48.8333 324.513 47.1C322.913 45.3667 320.83 44.5 318.263 44.5C315.697 44.5 313.597 45.3667 311.963 47.1C310.363 48.8333 309.563 50.9667 309.563 53.5C309.563 56.0333 310.363 58.1667 311.963 59.9ZM337.486 66V41H348.386C351.152 41 353.269 41.6167 354.736 42.85C356.202 44.0833 356.936 45.7333 356.936 47.8C356.936 49.7667 356.119 51.3833 354.486 52.65C357.219 53.9833 358.586 56.0167 358.586 58.75C358.586 60.85 357.836 62.5833 356.336 63.95C354.836 65.3167 352.586 66 349.586 66H337.486ZM341.786 62.25H349.836C351.169 62.25 352.219 61.9167 352.986 61.25C353.786 60.5833 354.186 59.6667 354.186 58.5C354.186 57.3333 353.786 56.4333 352.986 55.8C352.219 55.1333 351.169 54.8 349.836 54.8H341.786V62.25ZM341.786 51.35H348.736C351.302 51.35 352.586 50.2333 352.586 48C352.586 46.8333 352.219 46 351.486 45.5C350.752 44.9667 349.836 44.7 348.736 44.7H341.786V51.35ZM375.032 66.5C371.565 66.5 368.648 65.2333 366.282 62.7C363.948 60.1667 362.782 57.1 362.782 53.5C362.782 49.9 363.948 46.8333 366.282 44.3C368.648 41.7667 371.565 40.5 375.032 40.5C376.865 40.5 378.565 40.9167 380.132 41.75C381.732 42.55 382.965 43.5833 383.832 44.85V41H388.132V66H383.832V62.15C382.965 63.4167 381.732 64.4667 380.132 65.3C378.565 66.1 376.865 66.5 375.032 66.5ZM375.682 62.55C378.148 62.55 380.182 61.6833 381.782 59.95C383.382 58.2167 384.182 56.0667 384.182 53.5C384.182 50.9333 383.382 48.7833 381.782 47.05C380.182 45.3167 378.148 44.45 375.682 44.45C373.182 44.45 371.132 45.3167 369.532 47.05C367.932 48.7833 367.132 50.9333 367.132 53.5C367.132 56.0667 367.932 58.2167 369.532 59.95C371.132 61.6833 373.182 62.55 375.682 62.55ZM400.976 66V44.95H393.026V41H413.576V44.95H405.276V66H400.976ZM418.491 66V41H422.791V50H428.591C431.591 50 433.858 50.7833 435.391 52.35C436.958 53.9167 437.741 55.7833 437.741 57.95C437.741 60.15 436.958 62.05 435.391 63.65C433.825 65.2167 431.541 66 428.541 66H418.491ZM422.791 53.9V62.1H428.391C429.991 62.1 431.225 61.7333 432.091 61C432.991 60.2667 433.441 59.25 433.441 57.95C433.441 56.65 433.008 55.65 432.141 54.95C431.275 54.25 430.041 53.9 428.441 53.9H422.791Z" fill="black"/>
</svg>

