<svg width="546" height="195" viewBox="0 0 546 195" fill="none" xmlns="http://www.w3.org/2000/svg">
<g clip-path="url(#clip0_0_1)" filter="url(#filter0_gn_0_1)">
<path d="M287.497 113.233L265.449 130.686L276.71 133.85L298.758 116.396L287.497 113.233Z" fill="#1E1B1F"/>
<path d="M275.181 157.068L265.449 130.686L276.71 133.85L286.442 160.232L275.181 157.068Z" fill="#1E1B1F"/>
<path d="M228.511 96.6597L238.243 123.042L226.982 119.878L217.241 93.4932L228.511 96.6597Z" fill="#1E1B1F"/>
<path d="M216.195 140.495L238.243 123.042L226.982 119.878L204.925 137.329L216.195 140.495Z" fill="#1E1B1F"/>
<path d="M265.175 162.743L247.983 140.597L244.787 151.97L261.977 174.125L265.175 162.743Z" fill="#1E1B1F"/>
<path d="M221.772 150.548L247.983 140.597L244.787 151.97L218.574 161.931L221.772 150.548Z" fill="#1E1B1F"/>
<path d="M281.913 103.168L255.703 113.12L258.898 101.746L285.109 91.7944L281.913 103.168Z" fill="#1E1B1F"/>
<path d="M238.51 90.9737L255.703 113.12L258.898 101.746L241.706 79.6001L238.51 90.9737Z" fill="#1E1B1F"/>
<path d="M262.563 129.866L254.885 116.029L241.124 123.843L248.802 137.681L262.563 129.866Z" stroke="#1E1B1F" stroke-width="5.24" stroke-miterlimit="10"/>
<path d="M266.976 121.439C264.909 120.859 263.714 118.704 264.3 116.617C264.887 114.53 267.03 113.313 269.096 113.893C271.162 114.474 272.358 116.629 271.772 118.716C271.185 120.803 269.042 122.02 266.976 121.439Z" fill="#1E1B1F"/>
<path d="M261.939 139.366C259.873 138.785 257.73 140.002 257.143 142.089C256.557 144.176 257.753 146.331 259.819 146.912C261.885 147.492 264.029 146.275 264.615 144.188C265.201 142.101 264.006 139.946 261.939 139.366Z" fill="#1E1B1F"/>
<path d="M239.08 109.531C238.494 111.615 239.692 113.774 241.755 114.353C243.818 114.933 245.966 113.714 246.551 111.63C247.136 109.546 245.939 107.387 243.875 106.807C241.812 106.228 239.665 107.447 239.08 109.531Z" fill="#1E1B1F"/>
<path d="M231.923 135.003C231.337 137.087 232.535 139.246 234.599 139.826C236.662 140.405 238.809 139.186 239.394 137.102C239.98 135.018 238.782 132.859 236.719 132.28C234.656 131.7 232.508 132.919 231.923 135.003Z" fill="#1E1B1F"/>
<path d="M241.005 176.07L245.499 160.076L239.967 158.522L235.474 174.516L241.005 176.07Z" fill="#1E1B1F"/>
<path d="M262.689 77.6489L258.196 93.6431L263.727 95.1972L268.221 79.203L262.689 77.6489Z" fill="#1E1B1F"/>
<path d="M203.107 116.179L218.944 120.629L220.513 115.042L204.677 110.593L203.107 116.179Z" fill="#1E1B1F"/>
<path d="M300.587 137.54L284.751 133.09L283.181 138.677L299.018 143.126L300.587 137.54Z" fill="#1E1B1F"/>
</g>
<g clip-path="url(#clip1_0_1)" filter="url(#filter1_ng_0_1)">
<path d="M327.017 24.0458L350.521 43.7946L325.873 49.2689L327.017 24.0458Z" fill="#4F2748"/>
<path d="M325.873 49.2688L324.735 74.4853L301.23 54.7365L325.873 49.2688Z" fill="#4F2748"/>
<path d="M300.086 79.9596L323.584 99.7028L324.735 74.4853L300.086 79.9596Z" fill="#4F2748"/>
<path d="M351.665 18.5715L375.163 38.3147L350.521 43.7946L351.665 18.5715Z" fill="#4F2748"/>
<path d="M375.812 24.0232L389.136 35.2176L375.163 38.3147L375.812 24.0232Z" fill="#4F2748"/>
<path d="M309.618 102.806L322.941 114L323.584 99.7028L309.618 102.806Z" fill="#4F2748"/>
<path d="M397.523 83.2866L374.019 63.5378L372.875 88.7609L397.523 83.2866Z" fill="#4F2748"/>
<path d="M372.875 88.7609L348.232 94.2285L371.737 113.977L372.875 88.7609Z" fill="#4F2748"/>
<path d="M347.088 119.452L323.584 99.7028L348.232 94.2285L347.088 119.452Z" fill="#4F2748"/>
<path d="M398.668 58.0636L375.163 38.3148L374.019 63.5379L398.668 58.0636Z" fill="#4F2748"/>
<path d="M360.531 55.7291L359.545 77.561L338.21 82.2952L339.203 60.4689L360.531 55.7291Z" fill="#4F2748"/>
<path d="M334.43 56.4585L365.779 49.4976L364.325 81.577L332.976 88.5379L334.43 56.4585ZM331.114 53.6725L330.995 56.2981L329.541 88.3775L329.335 92.8574L333.713 91.8824L365.062 84.9215L367.627 84.3517L367.746 81.7261L369.2 49.6467L369.406 45.1668L365.029 46.1418L333.68 53.1027L331.114 53.6725Z" fill="#4F2748"/>
</g>
<g clip-path="url(#clip2_0_1)" filter="url(#filter2_g_0_1)">
<path d="M436.637 97.2378L468.853 109.485L466.314 96.7575L434.098 84.5099L436.637 97.2378Z" fill="#EBE9E7"/>
<path d="M493.904 85.8134L468.853 109.485L466.314 96.7575L491.365 73.0856L493.904 85.8134Z" fill="#EBE9E7"/>
<path d="M449.937 163.906L474.988 140.234L477.527 152.962L452.479 176.644L449.937 163.906Z" fill="#EBE9E7"/>
<path d="M507.204 152.482L474.988 140.234L477.527 152.962L509.745 165.22L507.204 152.482Z" fill="#EBE9E7"/>
<path d="M505.936 92.5752L489.863 121.285L504.722 118.321L520.806 89.6087L505.936 92.5752Z" fill="#EBE9E7"/>
<path d="M515.722 141.631L489.863 121.286L504.722 118.321L530.593 138.664L515.722 141.631Z" fill="#EBE9E7"/>
<path d="M428.109 108.101L453.968 128.446L439.109 131.411L413.25 111.066L428.109 108.101Z" fill="#EBE9E7"/>
<path d="M437.895 157.157L453.968 128.447L439.109 131.411L423.037 160.121L437.895 157.157Z" fill="#EBE9E7"/>
<path d="M469.494 112.752L457.768 127.688L474.328 136.982L486.054 122.045L469.494 112.752Z" stroke="#EBE9E7" stroke-width="5.24" stroke-miterlimit="10"/>
<path d="M457.362 112.944C457.828 115.28 456.002 117.606 453.275 118.15C450.549 118.694 447.97 117.246 447.504 114.911C447.038 112.575 448.864 110.249 451.591 109.705C454.317 109.161 456.896 110.609 457.362 112.944Z" fill="#EBE9E7"/>
<path d="M480.781 108.272C481.246 110.608 483.825 112.055 486.552 111.511C489.278 110.967 491.104 108.641 490.638 106.306C490.173 103.97 487.594 102.523 484.867 103.067C482.141 103.611 480.315 105.937 480.781 108.272Z" fill="#EBE9E7"/>
<path d="M458.962 146.655C461.684 146.112 463.514 143.781 463.049 141.449C462.583 139.117 460 137.667 457.277 138.21C454.555 138.753 452.726 141.084 453.191 143.416C453.656 145.748 456.24 147.198 458.962 146.655Z" fill="#EBE9E7"/>
<path d="M492.238 140.016C494.961 139.473 496.79 137.143 496.325 134.811C495.86 132.479 493.276 131.029 490.554 131.572C487.832 132.115 486.002 134.446 486.467 136.778C486.932 139.109 489.516 140.56 492.238 140.016Z" fill="#EBE9E7"/>
<path d="M534.564 109.112L513.669 113.281L514.916 119.533L535.811 115.364L534.564 109.112Z" fill="#EBE9E7"/>
<path d="M409.265 140.609L430.16 136.441L428.913 130.189L408.018 134.358L409.265 140.609Z" fill="#EBE9E7"/>
<path d="M486.376 178.333L482.806 160.435L475.508 161.891L479.078 179.789L486.376 178.333Z" fill="#EBE9E7"/>
<path d="M457.453 71.3883L461.023 89.2869L468.322 87.8309L464.751 69.9324L457.453 71.3883Z" fill="#EBE9E7"/>
</g>
<g clip-path="url(#clip3_0_1)" filter="url(#filter3_ng_0_1)">
<path d="M128.955 52.3899L148.041 64.8179L154.052 56.7785L140.231 47.784L128.955 52.3899Z" fill="#394869"/>
<path d="M161.672 46.5639L142.579 34.1454L141.851 45.6153L155.672 54.6098L161.672 46.5639Z" fill="#394869"/>
<path d="M167.136 77.2445L186.229 89.663L186.958 78.1931L173.147 69.2051L167.136 77.2445Z" fill="#394869"/>
<path d="M180.767 58.9904L174.766 67.0363L188.577 76.0243L199.853 71.4184L180.767 58.9904Z" fill="#394869"/>
<path d="M180.767 58.9903L194.39 40.7376L182.217 40.3074L172.359 53.5185L180.767 58.9903Z" fill="#394869"/>
<path d="M175.305 28.3176L161.672 46.5638L170.09 52.0421L179.949 38.831L175.305 28.3176Z" fill="#394869"/>
<path d="M153.503 95.4906L167.136 77.2445L158.728 71.7726L148.86 84.9773L153.503 95.4906Z" fill="#394869"/>
<path d="M148.041 64.818L134.418 83.0707L146.591 83.501L156.459 70.2963L148.041 64.818Z" fill="#394869"/>
<path d="M150.094 28.9225L156.907 19.8002L166.457 26.0087" stroke="#394869" stroke-width="5.04" stroke-miterlimit="10"/>
<path d="M160.04 37.3948L156.907 19.8002" stroke="#394869" stroke-width="5.04" stroke-miterlimit="10"/>
<path d="M162.361 97.8062L171.903 104.016L178.724 94.8923" stroke="#394869" stroke-width="5.04" stroke-miterlimit="10"/>
<path d="M168.77 86.4215L171.903 104.016" stroke="#394869" stroke-width="5.04" stroke-miterlimit="10"/>
<path d="M199.781 47.6952L209.324 53.9052L202.513 63.0355" stroke="#394869" stroke-width="5.04" stroke-miterlimit="10"/>
<path d="M190.556 57.2472L209.324 53.9052" stroke="#394869" stroke-width="5.04" stroke-miterlimit="10"/>
<path d="M126.305 60.7793L119.493 69.9016L129.037 76.1197" stroke="#394869" stroke-width="5.04" stroke-miterlimit="10"/>
<path d="M138.261 66.5596L119.493 69.9016" stroke="#394869" stroke-width="5.04" stroke-miterlimit="10"/>
<path d="M169.185 55.5024L157.708 57.5461L159.624 68.306L171.101 66.2622L169.185 55.5024Z" stroke="#394869" stroke-width="5.04" stroke-miterlimit="10"/>
</g>
<g clip-path="url(#clip4_0_1)" filter="url(#filter4_ng_0_1)">
<path d="M62.8164 130.938L41.1917 127.441L26.0174 107.648L47.6421 111.145L62.8164 130.938Z" fill="#A29BAE"/>
<path d="M62.8165 130.938L66.839 111.474L51.6647 91.6809L47.6421 111.145L62.8165 130.938Z" fill="#A29BAE"/>
<path d="M67.4548 136.988L64.0953 157.304L78.6065 176.245L82.6291 156.781L67.4548 136.988Z" fill="#A29BAE"/>
<path d="M67.4548 136.988L89.73 141.345L104.254 160.278L82.6291 156.781L67.4548 136.988Z" fill="#A29BAE"/>
<path d="M68.3716 131.948L72.3838 111.74L92.6337 99.1335L89.5442 118.767L68.3716 131.948Z" fill="#A29BAE"/>
<path d="M68.3716 131.948L90.7542 135.715L111.015 123.11L89.5442 118.767L68.3716 131.948Z" fill="#A29BAE"/>
<path d="M61.8997 135.978L39.5061 132.209L19.2562 144.816L40.727 149.159L61.8997 135.978Z" fill="#A29BAE"/>
<path d="M61.8997 135.978L57.8892 156.176L37.6375 168.792L40.727 149.159L61.8997 135.978Z" fill="#A29BAE"/>
<path d="M42.3481 93.9725L40.8368 102.28L31.6796 100.614L33.1908 92.3067L42.3481 93.9725ZM47.4042 90.8247L29.5779 87.5819L26.6343 103.764L44.4714 107.009L47.4151 90.8266L47.4042 90.8247Z" fill="#A29BAE"/>
<path d="M98.5808 167.31L97.0696 175.617L87.9124 173.951L89.4236 165.644L98.5808 167.31ZM103.637 164.162L85.7999 160.917L82.8562 177.099L100.693 180.344L103.637 164.162Z" fill="#A29BAE"/>
<path d="M109.693 106.223L108.182 114.531L99.0245 112.865L100.536 104.557L109.693 106.223ZM114.749 103.075L96.912 99.8304L93.9684 116.013L111.806 119.257L114.749 103.075Z" fill="#A29BAE"/>
<path d="M31.2359 155.059L29.7247 163.367L20.5674 161.701L22.0786 153.393L31.2359 155.059ZM36.292 151.911L18.4658 148.669L15.5221 164.851L33.3592 168.095L36.3029 151.913L36.292 151.911Z" fill="#A29BAE"/>
<path d="M70.7973 102.839L72.6685 92.5527" stroke="#A29BAE" stroke-width="5" stroke-miterlimit="10"/>
<path d="M82.3889 86.5011L72.6685 92.5527L65.691 83.4636" stroke="#A29BAE" stroke-width="5" stroke-miterlimit="10"/>
<path d="M59.4757 165.077L57.6046 175.363" stroke="#A29BAE" stroke-width="5" stroke-miterlimit="10"/>
<path d="M64.5694 184.46L57.6046 175.363L47.8715 181.423" stroke="#A29BAE" stroke-width="5" stroke-miterlimit="10"/>
<path d="M99.4319 140.202L110.77 142.264" stroke="#A29BAE" stroke-width="5" stroke-miterlimit="10"/>
<path d="M117.747 151.353L110.77 142.264L120.503 136.205" stroke="#A29BAE" stroke-width="5" stroke-miterlimit="10"/>
<path d="M30.8284 127.722L19.4904 125.66" stroke="#A29BAE" stroke-width="5" stroke-miterlimit="10"/>
<path d="M9.76992 131.711L19.4904 125.66L12.5256 116.563" stroke="#A29BAE" stroke-width="5" stroke-miterlimit="10"/>
</g>
<defs>
<filter id="filter0_gn_0_1" x="186.384" y="61.0525" width="130.926" height="131.614" filterUnits="userSpaceOnUse" color-interpolation-filters="sRGB">
<feFlood flood-opacity="0" result="BackgroundImageFix"/>
<feBlend mode="normal" in="SourceGraphic" in2="BackgroundImageFix" result="shape"/>
<feTurbulence type="fractalNoise" baseFrequency="0.055865924805402756 0.055865924805402756" numOctaves="3" seed="3177" />
<feDisplacementMap in="shape" scale="7.8000001907348633" xChannelSelector="R" yChannelSelector="G" result="displacedImage" width="100%" height="100%" />
<feMerge result="effect1_texture_0_1">
<feMergeNode in="displacedImage"/>
</feMerge>
<feTurbulence type="fractalNoise" baseFrequency="0.010834235697984695 0.010834235697984695" stitchTiles="stitch" numOctaves="3" result="noise" seed="8309" />
<feColorMatrix in="noise" type="luminanceToAlpha" result="alphaNoise" />
<feComponentTransfer in="alphaNoise" result="coloredNoise1">
<feFuncA type="discrete" tableValues="1 1 1 1 1 1 1 1 1 1 1 1 1 1 1 1 1 1 1 1 1 1 1 1 1 1 1 1 1 1 1 1 1 1 1 1 1 1 1 1 1 1 1 1 1 1 1 1 1 1 1 0 0 0 0 0 0 0 0 0 0 0 0 0 0 0 0 0 0 0 0 0 0 0 0 0 0 0 0 0 0 0 0 0 0 0 0 0 0 0 0 0 0 0 0 0 0 0 0 0 "/>
</feComponentTransfer>
<feComposite operator="in" in2="effect1_texture_0_1" in="coloredNoise1" result="noise1Clipped" />
<feFlood flood-color="rgba(117, 77, 115, 0.34)" result="color1Flood" />
<feComposite operator="in" in2="noise1Clipped" in="color1Flood" result="color1" />
<feMerge result="effect2_noise_0_1">
<feMergeNode in="effect1_texture_0_1" />
<feMergeNode in="color1" />
</feMerge>
</filter>
<filter id="filter1_ng_0_1" x="277.126" y="-3.9" width="144.501" height="145.823" filterUnits="userSpaceOnUse" color-interpolation-filters="sRGB">
<feFlood flood-opacity="0" result="BackgroundImageFix"/>
<feBlend mode="normal" in="SourceGraphic" in2="BackgroundImageFix" result="shape"/>
<feTurbulence type="fractalNoise" baseFrequency="0.013717420399188995 0.013717420399188995" stitchTiles="stitch" numOctaves="3" result="noise" seed="8309" />
<feColorMatrix in="noise" type="luminanceToAlpha" result="alphaNoise" />
<feComponentTransfer in="alphaNoise" result="coloredNoise1">
<feFuncA type="discrete" tableValues="1 1 1 1 1 1 1 1 1 1 1 1 1 1 1 1 1 1 1 1 1 1 1 1 1 1 1 1 1 1 1 1 1 1 1 1 1 1 1 1 1 1 1 1 1 1 1 1 1 1 1 0 0 0 0 0 0 0 0 0 0 0 0 0 0 0 0 0 0 0 0 0 0 0 0 0 0 0 0 0 0 0 0 0 0 0 0 0 0 0 0 0 0 0 0 0 0 0 0 0 "/>
</feComponentTransfer>
<feComposite operator="in" in2="shape" in="coloredNoise1" result="noise1Clipped" />
<feFlood flood-color="rgba(157, 149, 156, 0.11)" result="color1Flood" />
<feComposite operator="in" in2="noise1Clipped" in="color1Flood" result="color1" />
<feMerge result="effect1_noise_0_1">
<feMergeNode in="shape" />
<feMergeNode in="color1" />
</feMerge>
<feTurbulence type="fractalNoise" baseFrequency="0.055865924805402756 0.055865924805402756" numOctaves="3" seed="3177" />
<feDisplacementMap in="effect1_noise_0_1" scale="7.8000001907348633" xChannelSelector="R" yChannelSelector="G" result="displacedImage" width="100%" height="100%" />
<feMerge result="effect2_texture_0_1">
<feMergeNode in="displacedImage"/>
</feMerge>
</filter>
<filter id="filter2_g_0_1" x="393.929" y="54.1378" width="155.971" height="141.446" filterUnits="userSpaceOnUse" color-interpolation-filters="sRGB">
<feFlood flood-opacity="0" result="BackgroundImageFix"/>
<feBlend mode="normal" in="SourceGraphic" in2="BackgroundImageFix" result="shape"/>
<feTurbulence type="fractalNoise" baseFrequency="0.055865924805402756 0.055865924805402756" numOctaves="3" seed="3177" />
<feDisplacementMap in="shape" scale="7.8000001907348633" xChannelSelector="R" yChannelSelector="G" result="displacedImage" width="100%" height="100%" />
<feMerge result="effect1_texture_0_1">
<feMergeNode in="displacedImage"/>
</feMerge>
</filter>
<filter id="filter3_ng_0_1" x="104.543" y="4.50527" width="119.732" height="114.804" filterUnits="userSpaceOnUse" color-interpolation-filters="sRGB">
<feFlood flood-opacity="0" result="BackgroundImageFix"/>
<feBlend mode="normal" in="SourceGraphic" in2="BackgroundImageFix" result="shape"/>
<feTurbulence type="fractalNoise" baseFrequency="0.010834235697984695 0.010834235697984695" stitchTiles="stitch" numOctaves="3" result="noise" seed="8309" />
<feColorMatrix in="noise" type="luminanceToAlpha" result="alphaNoise" />
<feComponentTransfer in="alphaNoise" result="coloredNoise1">
<feFuncA type="discrete" tableValues="1 1 1 1 1 1 1 1 1 1 1 1 1 1 1 1 1 1 1 1 1 1 1 1 1 1 1 1 1 1 1 1 1 1 1 1 1 1 1 1 1 1 1 1 1 1 1 1 1 1 1 0 0 0 0 0 0 0 0 0 0 0 0 0 0 0 0 0 0 0 0 0 0 0 0 0 0 0 0 0 0 0 0 0 0 0 0 0 0 0 0 0 0 0 0 0 0 0 0 0 "/>
</feComponentTransfer>
<feComposite operator="in" in2="shape" in="coloredNoise1" result="noise1Clipped" />
<feFlood flood-color="rgba(22, 46, 77, 0.32)" result="color1Flood" />
<feComposite operator="in" in2="noise1Clipped" in="color1Flood" result="color1" />
<feMerge result="effect1_noise_0_1">
<feMergeNode in="shape" />
<feMergeNode in="color1" />
</feMerge>
<feTurbulence type="fractalNoise" baseFrequency="0.055865924805402756 0.055865924805402756" numOctaves="3" seed="3177" />
<feDisplacementMap in="effect1_noise_0_1" scale="7.8000001907348633" xChannelSelector="R" yChannelSelector="G" result="displacedImage" width="100%" height="100%" />
<feMerge result="effect2_texture_0_1">
<feMergeNode in="displacedImage"/>
</feMerge>
</filter>
<filter id="filter4_ng_0_1" x="-3.90031" y="69.1708" width="138.072" height="129.584" filterUnits="userSpaceOnUse" color-interpolation-filters="sRGB">
<feFlood flood-opacity="0" result="BackgroundImageFix"/>
<feBlend mode="normal" in="SourceGraphic" in2="BackgroundImageFix" result="shape"/>
<feTurbulence type="fractalNoise" baseFrequency="0.013717420399188995 0.013717420399188995" stitchTiles="stitch" numOctaves="3" result="noise" seed="8309" />
<feColorMatrix in="noise" type="luminanceToAlpha" result="alphaNoise" />
<feComponentTransfer in="alphaNoise" result="coloredNoise1">
<feFuncA type="discrete" tableValues="1 1 1 1 1 1 1 1 1 1 1 1 1 1 1 1 1 1 1 1 1 1 1 1 1 1 1 1 1 1 1 1 1 1 1 1 1 1 1 1 1 1 1 1 1 1 1 1 1 1 1 0 0 0 0 0 0 0 0 0 0 0 0 0 0 0 0 0 0 0 0 0 0 0 0 0 0 0 0 0 0 0 0 0 0 0 0 0 0 0 0 0 0 0 0 0 0 0 0 0 "/>
</feComponentTransfer>
<feComposite operator="in" in2="shape" in="coloredNoise1" result="noise1Clipped" />
<feFlood flood-color="rgba(157, 149, 156, 0.11)" result="color1Flood" />
<feComposite operator="in" in2="noise1Clipped" in="color1Flood" result="color1" />
<feMerge result="effect1_noise_0_1">
<feMergeNode in="shape" />
<feMergeNode in="color1" />
</feMerge>
<feTurbulence type="fractalNoise" baseFrequency="0.055865924805402756 0.055865924805402756" numOctaves="3" seed="3177" />
<feDisplacementMap in="effect1_noise_0_1" scale="7.8000001907348633" xChannelSelector="R" yChannelSelector="G" result="displacedImage" width="100%" height="100%" />
<feMerge result="effect2_texture_0_1">
<feMergeNode in="displacedImage"/>
</feMerge>
</filter>
<clipPath id="clip0_0_1">
<rect width="100.618" height="99.6237" fill="white" transform="translate(313.41 91.8994) rotate(105.693)"/>
</clipPath>
<clipPath id="clip1_0_1">
<rect width="102.9" height="92.0903" fill="white" transform="translate(281.026 78.7823) rotate(-49.9624)"/>
</clipPath>
<clipPath id="clip2_0_1">
<rect width="129.039" height="110.537" fill="white" transform="translate(397.829 83.283) rotate(-11.2821)"/>
</clipPath>
<clipPath id="clip3_0_1">
<rect width="97.4275" height="91.3383" fill="white" transform="translate(108.443 25.4858) rotate(-10.097)"/>
</clipPath>
<clipPath id="clip4_0_1">
<rect width="113.653" height="103.108" fill="white" transform="translate(18.4531 73.0708) rotate(10.3098)"/>
</clipPath>
</defs>
</svg>
