<svg width="348" height="72" viewBox="0 0 348 72" fill="none" xmlns="http://www.w3.org/2000/svg">
<g filter="url(#filter0_f_0_1)">
<path d="M10.95 18.0634C4.18181 33.2529 4.52036 47.7698 10.95 53.5074C17.3796 59.2451 108.109 65.8282 170.678 65.9973C235.487 66.1724 328.715 57.8948 336.16 53.5074C343.605 49.12 344.281 25.7268 336.16 18.0634C328.038 10.3999 235.468 6.08294 170.678 6.24867C108.13 6.40866 17.7182 2.87381 10.95 18.0634Z" stroke="#C200C2" stroke-width="3"/>
</g>
<g filter="url(#filter1_f_0_1)">
<path d="M10.95 18.0634C4.18181 33.2529 4.52036 47.7698 10.95 53.5074C17.3796 59.2451 108.109 65.8282 170.678 65.9973C235.487 66.1724 328.715 57.8948 336.16 53.5074C343.605 49.12 344.281 25.7268 336.16 18.0634C328.038 10.3999 235.468 6.08294 170.678 6.24867C108.13 6.40866 17.7182 2.87381 10.95 18.0634Z" stroke="#754D73" stroke-width="3"/>
</g>
<path d="M10.95 18.0634C4.18181 33.2529 4.52036 47.7698 10.95 53.5074C17.3796 59.2451 108.109 65.8282 170.678 65.9973C235.487 66.1724 328.715 57.8948 336.16 53.5074C343.605 49.12 344.281 25.7268 336.16 18.0634C328.038 10.3999 235.468 6.08294 170.678 6.24867C108.13 6.40866 17.7182 2.87381 10.95 18.0634Z" stroke="#3C171E" stroke-width="3"/>
<path d="M140.025 45V32.5H145.475C146.858 32.5 147.917 32.8083 148.65 33.425C149.383 34.0417 149.75 34.8667 149.75 35.9C149.75 36.8833 149.342 37.6917 148.525 38.325C149.892 38.9917 150.575 40.0083 150.575 41.375C150.575 42.425 150.2 43.2917 149.45 43.975C148.7 44.6583 147.575 45 146.075 45H140.025ZM142.175 43.125H146.2C146.867 43.125 147.392 42.9583 147.775 42.625C148.175 42.2917 148.375 41.8333 148.375 41.25C148.375 40.6667 148.175 40.2167 147.775 39.9C147.392 39.5667 146.867 39.4 146.2 39.4H142.175V43.125ZM142.175 37.675H145.65C146.933 37.675 147.575 37.1167 147.575 36C147.575 35.4167 147.392 35 147.025 34.75C146.658 34.4833 146.2 34.35 145.65 34.35H142.175V37.675ZM159.198 45.25C157.315 45.25 155.748 44.625 154.498 43.375C153.265 42.1083 152.648 40.5667 152.648 38.75C152.648 36.9333 153.265 35.4 154.498 34.15C155.748 32.8833 157.315 32.25 159.198 32.25C161.065 32.25 162.615 32.8833 163.848 34.15C165.098 35.4 165.723 36.9333 165.723 38.75C165.723 40.5667 165.098 42.1083 163.848 43.375C162.615 44.625 161.065 45.25 159.198 45.25ZM156.048 41.95C156.865 42.8167 157.915 43.25 159.198 43.25C160.481 43.25 161.523 42.8167 162.323 41.95C163.123 41.0833 163.523 40.0167 163.523 38.75C163.523 37.4833 163.123 36.4167 162.323 35.55C161.523 34.6833 160.481 34.25 159.198 34.25C157.915 34.25 156.865 34.6833 156.048 35.55C155.248 36.4167 154.848 37.4833 154.848 38.75C154.848 40.0167 155.248 41.0833 156.048 41.95ZM170.734 45H168.809V32.5H170.959V41.675L178.009 32.5H179.909V45H177.784V35.825L170.734 45ZM177.384 29.45C176.634 30.1833 175.693 30.55 174.559 30.55C173.426 30.55 172.476 30.1833 171.709 29.45C170.959 28.7167 170.584 27.7583 170.584 26.575V26.25H172.284V26.575C172.284 27.375 172.493 28 172.909 28.45C173.343 28.8833 173.893 29.1 174.559 29.1C175.226 29.1 175.768 28.8833 176.184 28.45C176.618 28 176.834 27.375 176.834 26.575V26.25H178.534V26.575C178.534 27.7583 178.151 28.7167 177.384 29.45ZM186.37 45V34.475H182.395V32.5H192.67V34.475H188.52V45H186.37ZM197.053 45H195.128V32.5H197.278V41.675L204.328 32.5H206.228V45H204.103V35.825L197.053 45Z" fill="black"/>
<defs>
<filter id="filter0_f_0_1" x="0.5" y="0.500122" width="347" height="70.9999" filterUnits="userSpaceOnUse" color-interpolation-filters="sRGB">
<feFlood flood-opacity="0" result="BackgroundImageFix"/>
<feBlend mode="normal" in="SourceGraphic" in2="BackgroundImageFix" result="shape"/>
<feGaussianBlur stdDeviation="2" result="effect1_foregroundBlur_0_1"/>
</filter>
<filter id="filter1_f_0_1" x="0.5" y="0.500122" width="347" height="70.9999" filterUnits="userSpaceOnUse" color-interpolation-filters="sRGB">
<feFlood flood-opacity="0" result="BackgroundImageFix"/>
<feBlend mode="normal" in="SourceGraphic" in2="BackgroundImageFix" result="shape"/>
<feGaussianBlur stdDeviation="2" result="effect1_foregroundBlur_0_1"/>
</filter>
</defs>
</svg>
