<svg width="348" height="72" viewBox="0 0 348 72" fill="none" xmlns="http://www.w3.org/2000/svg">
<g filter="url(#filter0_f_0_1)">
<path d="M10.95 18.0634C4.18181 33.2529 4.52036 47.7698 10.95 53.5074C17.3796 59.2451 108.109 65.8282 170.678 65.9973C235.487 66.1724 328.715 57.8948 336.16 53.5074C343.605 49.12 344.281 25.7268 336.16 18.0634C328.038 10.3999 235.468 6.08294 170.678 6.24867C108.13 6.40866 17.7182 2.87381 10.95 18.0634Z" stroke="#C200C2" stroke-width="3"/>
</g>
<g filter="url(#filter1_f_0_1)">
<path d="M10.95 18.0634C4.18181 33.2529 4.52036 47.7698 10.95 53.5074C17.3796 59.2451 108.109 65.8282 170.678 65.9973C235.487 66.1724 328.715 57.8948 336.16 53.5074C343.605 49.12 344.281 25.7268 336.16 18.0634C328.038 10.3999 235.468 6.08294 170.678 6.24867C108.13 6.40866 17.7182 2.87381 10.95 18.0634Z" stroke="#754D73" stroke-width="3"/>
</g>
<path d="M10.95 18.0634C4.18181 33.2529 4.52036 47.7698 10.95 53.5074C17.3796 59.2451 108.109 65.8282 170.678 65.9973C235.487 66.1724 328.715 57.8948 336.16 53.5074C343.605 49.12 344.281 25.7268 336.16 18.0634C328.038 10.3999 235.468 6.08294 170.678 6.24867C108.13 6.40866 17.7182 2.87381 10.95 18.0634Z" stroke="#3C171E" stroke-width="3"/>
<path d="M62 45.25C60.7167 45.25 59.5917 44.9333 58.625 44.3C57.675 43.6667 57.0833 42.775 56.85 41.625H59.025C59.4417 42.825 60.4333 43.425 62 43.425C62.9167 43.425 63.6083 43.2333 64.075 42.85C64.5417 42.4667 64.775 41.9667 64.775 41.35C64.775 40.7333 64.5417 40.25 64.075 39.9C63.625 39.55 62.975 39.375 62.125 39.375H60.675V37.625H62.125C62.8083 37.625 63.35 37.475 63.75 37.175C64.1667 36.875 64.375 36.4333 64.375 35.85C64.375 35.2833 64.1583 34.8417 63.725 34.525C63.2917 34.2083 62.7083 34.05 61.975 34.05C60.525 34.05 59.6167 34.6333 59.25 35.8H57.125C57.3583 34.65 57.925 33.775 58.825 33.175C59.725 32.5583 60.7833 32.25 62 32.25C63.4 32.25 64.4917 32.5833 65.275 33.25C66.0583 33.9 66.45 34.725 66.45 35.725C66.45 36.9417 65.9333 37.85 64.9 38.45C66.2667 39.0667 66.95 40.0917 66.95 41.525C66.95 42.575 66.5167 43.4583 65.65 44.175C64.7833 44.8917 63.5667 45.25 62 45.25ZM75.2844 45.25C73.551 45.25 72.0927 44.6167 70.9094 43.35C69.7427 42.0833 69.1594 40.55 69.1594 38.75C69.1594 36.95 69.7427 35.4167 70.9094 34.15C72.0927 32.8833 73.551 32.25 75.2844 32.25C76.201 32.25 77.051 32.4583 77.8344 32.875C78.6344 33.275 79.251 33.7917 79.6844 34.425V32.5H81.8344V45H79.6844V43.075C79.251 43.7083 78.6344 44.2333 77.8344 44.65C77.051 45.05 76.201 45.25 75.2844 45.25ZM75.6094 43.275C76.8427 43.275 77.8594 42.8417 78.6594 41.975C79.4594 41.1083 79.8594 40.0333 79.8594 38.75C79.8594 37.4667 79.4594 36.3917 78.6594 35.525C77.8594 34.6583 76.8427 34.225 75.6094 34.225C74.3594 34.225 73.3344 34.6583 72.5344 35.525C71.7344 36.3917 71.3344 37.4667 71.3344 38.75C71.3344 40.0333 71.7344 41.1083 72.5344 41.975C73.3344 42.8417 74.3594 43.275 75.6094 43.275ZM88.0314 50.225H85.8814V32.5H88.0314V34.425C88.4648 33.7917 89.0731 33.275 89.8564 32.875C90.6564 32.4583 91.5148 32.25 92.4314 32.25C94.1648 32.25 95.6148 32.8833 96.7814 34.15C97.9648 35.4167 98.5564 36.95 98.5564 38.75C98.5564 40.55 97.9648 42.0833 96.7814 43.35C95.6148 44.6167 94.1648 45.25 92.4314 45.25C91.5148 45.25 90.6564 45.05 89.8564 44.65C89.0731 44.2333 88.4648 43.7083 88.0314 43.075V50.225ZM89.0564 41.975C89.8564 42.8417 90.8731 43.275 92.1064 43.275C93.3398 43.275 94.3564 42.8417 95.1564 41.975C95.9564 41.1083 96.3564 40.0333 96.3564 38.75C96.3564 37.4667 95.9564 36.3917 95.1564 35.525C94.3564 34.6583 93.3398 34.225 92.1064 34.225C90.8731 34.225 89.8564 34.6583 89.0564 35.525C88.2564 36.3917 87.8564 37.4667 87.8564 38.75C87.8564 40.0333 88.2564 41.1083 89.0564 41.975ZM106.978 45.25C105.161 45.25 103.653 44.6333 102.453 43.4C101.27 42.1667 100.678 40.6167 100.678 38.75C100.678 36.8667 101.253 35.3167 102.403 34.1C103.57 32.8667 105.111 32.25 107.028 32.25C108.961 32.25 110.478 32.9333 111.578 34.3C112.678 35.6667 113.161 37.3417 113.028 39.325H102.853C102.886 40.4583 103.303 41.4083 104.103 42.175C104.903 42.925 105.87 43.3 107.003 43.3C108.703 43.3 109.911 42.6 110.628 41.2H112.828C112.511 42.3667 111.836 43.3333 110.803 44.1C109.77 44.8667 108.495 45.25 106.978 45.25ZM109.428 35.05C108.745 34.45 107.92 34.15 106.953 34.15C105.986 34.15 105.12 34.4417 104.353 35.025C103.603 35.6083 103.136 36.475 102.953 37.625H110.753C110.553 36.4917 110.111 35.6333 109.428 35.05ZM116.13 45V32.5H123.955V34.475H118.28V45H116.13ZM128.334 45H126.409V32.5H128.559V41.675L135.609 32.5H137.509V45H135.384V35.825L128.334 45ZM147.144 45.25C145.261 45.25 143.703 44.625 142.469 43.375C141.236 42.1083 140.619 40.5667 140.619 38.75C140.619 36.9333 141.236 35.4 142.469 34.15C143.703 32.8833 145.261 32.25 147.144 32.25C148.694 32.25 150.036 32.6833 151.169 33.55C152.303 34.4 153.061 35.5167 153.444 36.9H151.144C150.844 36.0833 150.344 35.4333 149.644 34.95C148.944 34.4667 148.111 34.225 147.144 34.225C145.861 34.225 144.811 34.6583 143.994 35.525C143.194 36.3917 142.794 37.4667 142.794 38.75C142.794 40.0333 143.194 41.1083 143.994 41.975C144.811 42.8417 145.861 43.275 147.144 43.275C148.111 43.275 148.944 43.0333 149.644 42.55C150.344 42.0667 150.844 41.4167 151.144 40.6H153.444C153.078 41.9833 152.328 43.1083 151.194 43.975C150.061 44.825 148.711 45.25 147.144 45.25ZM158.618 45V34.475H154.643V32.5H164.918V34.475H160.768V45H158.618ZM169.526 50.225H167.376V32.5H169.526V34.425C169.959 33.7917 170.567 33.275 171.351 32.875C172.151 32.4583 173.009 32.25 173.926 32.25C175.659 32.25 177.109 32.8833 178.276 34.15C179.459 35.4167 180.051 36.95 180.051 38.75C180.051 40.55 179.459 42.0833 178.276 43.35C177.109 44.6167 175.659 45.25 173.926 45.25C173.009 45.25 172.151 45.05 171.351 44.65C170.567 44.2333 169.959 43.7083 169.526 43.075V50.225ZM170.551 41.975C171.351 42.8417 172.367 43.275 173.601 43.275C174.834 43.275 175.851 42.8417 176.651 41.975C177.451 41.1083 177.851 40.0333 177.851 38.75C177.851 37.4667 177.451 36.3917 176.651 35.525C175.851 34.6583 174.834 34.225 173.601 34.225C172.367 34.225 171.351 34.6583 170.551 35.525C169.751 36.3917 169.351 37.4667 169.351 38.75C169.351 40.0333 169.751 41.1083 170.551 41.975ZM185.072 45H183.147V32.5H185.297V41.675L192.347 32.5H194.247V45H192.122V35.825L185.072 45ZM200.483 50.225H198.333V32.5H200.483V34.425C200.916 33.7917 201.524 33.275 202.308 32.875C203.108 32.4583 203.966 32.25 204.883 32.25C206.616 32.25 208.066 32.8833 209.233 34.15C210.416 35.4167 211.008 36.95 211.008 38.75C211.008 40.55 210.416 42.0833 209.233 43.35C208.066 44.6167 206.616 45.25 204.883 45.25C203.966 45.25 203.108 45.05 202.308 44.65C201.524 44.2333 200.916 43.7083 200.483 43.075V50.225ZM201.508 41.975C202.308 42.8417 203.324 43.275 204.558 43.275C205.791 43.275 206.808 42.8417 207.608 41.975C208.408 41.1083 208.808 40.0333 208.808 38.75C208.808 37.4667 208.408 36.3917 207.608 35.525C206.808 34.6583 205.791 34.225 204.558 34.225C203.324 34.225 202.308 34.6583 201.508 35.525C200.708 36.3917 200.308 37.4667 200.308 38.75C200.308 40.0333 200.708 41.1083 201.508 41.975ZM219.654 45.25C217.771 45.25 216.204 44.625 214.954 43.375C213.721 42.1083 213.104 40.5667 213.104 38.75C213.104 36.9333 213.721 35.4 214.954 34.15C216.204 32.8833 217.771 32.25 219.654 32.25C221.521 32.25 223.071 32.8833 224.304 34.15C225.554 35.4 226.179 36.9333 226.179 38.75C226.179 40.5667 225.554 42.1083 224.304 43.375C223.071 44.625 221.521 45.25 219.654 45.25ZM216.504 41.95C217.321 42.8167 218.371 43.25 219.654 43.25C220.937 43.25 221.979 42.8167 222.779 41.95C223.579 41.0833 223.979 40.0167 223.979 38.75C223.979 37.4833 223.579 36.4167 222.779 35.55C221.979 34.6833 220.937 34.25 219.654 34.25C218.371 34.25 217.321 34.6833 216.504 35.55C215.704 36.4167 215.304 37.4833 215.304 38.75C215.304 40.0167 215.704 41.0833 216.504 41.95ZM229.265 45V32.5H234.715C236.099 32.5 237.157 32.8083 237.89 33.425C238.624 34.0417 238.99 34.8667 238.99 35.9C238.99 36.8833 238.582 37.6917 237.765 38.325C239.132 38.9917 239.815 40.0083 239.815 41.375C239.815 42.425 239.44 43.2917 238.69 43.975C237.94 44.6583 236.815 45 235.315 45H229.265ZM231.415 43.125H235.44C236.107 43.125 236.632 42.9583 237.015 42.625C237.415 42.2917 237.615 41.8333 237.615 41.25C237.615 40.6667 237.415 40.2167 237.015 39.9C236.632 39.5667 236.107 39.4 235.44 39.4H231.415V43.125ZM231.415 37.675H234.89C236.174 37.675 236.815 37.1167 236.815 36C236.815 35.4167 236.632 35 236.265 34.75C235.899 34.4833 235.44 34.35 234.89 34.35H231.415V37.675ZM248.038 45.25C246.305 45.25 244.847 44.6167 243.663 43.35C242.497 42.0833 241.913 40.55 241.913 38.75C241.913 36.95 242.497 35.4167 243.663 34.15C244.847 32.8833 246.305 32.25 248.038 32.25C248.955 32.25 249.805 32.4583 250.588 32.875C251.388 33.275 252.005 33.7917 252.438 34.425V32.5H254.588V45H252.438V43.075C252.005 43.7083 251.388 44.2333 250.588 44.65C249.805 45.05 248.955 45.25 248.038 45.25ZM248.363 43.275C249.597 43.275 250.613 42.8417 251.413 41.975C252.213 41.1083 252.613 40.0333 252.613 38.75C252.613 37.4667 252.213 36.3917 251.413 35.525C250.613 34.6583 249.597 34.225 248.363 34.225C247.113 34.225 246.088 34.6583 245.288 35.525C244.488 36.3917 244.088 37.4667 244.088 38.75C244.088 40.0333 244.488 41.1083 245.288 41.975C246.088 42.8417 247.113 43.275 248.363 43.275ZM261.01 45V34.475H257.035V32.5H267.31V34.475H263.16V45H261.01ZM269.768 45V32.5H271.918V37H274.818C276.318 37 277.451 37.3917 278.218 38.175C279.001 38.9583 279.393 39.8917 279.393 40.975C279.393 42.075 279.001 43.025 278.218 43.825C277.435 44.6083 276.293 45 274.793 45H269.768ZM271.918 38.95V43.05H274.718C275.518 43.05 276.135 42.8667 276.568 42.5C277.018 42.1333 277.243 41.625 277.243 40.975C277.243 40.325 277.026 39.825 276.593 39.475C276.16 39.125 275.543 38.95 274.743 38.95H271.918ZM287.721 45.25C285.837 45.25 284.279 44.625 283.046 43.375C281.812 42.1083 281.196 40.5667 281.196 38.75C281.196 36.9333 281.812 35.4 283.046 34.15C284.279 32.8833 285.837 32.25 287.721 32.25C289.271 32.25 290.612 32.6833 291.746 33.55C292.879 34.4 293.637 35.5167 294.021 36.9H291.721C291.421 36.0833 290.921 35.4333 290.221 34.95C289.521 34.4667 288.687 34.225 287.721 34.225C286.437 34.225 285.387 34.6583 284.571 35.525C283.771 36.3917 283.371 37.4667 283.371 38.75C283.371 40.0333 283.771 41.1083 284.571 41.975C285.387 42.8417 286.437 43.275 287.721 43.275C288.687 43.275 289.521 43.0333 290.221 42.55C290.921 42.0667 291.421 41.4167 291.721 40.6H294.021C293.654 41.9833 292.904 43.1083 291.771 43.975C290.637 44.825 289.287 45.25 287.721 45.25ZM294.694 45L299.744 40.1C298.761 39.8667 298.002 39.4333 297.469 38.8C296.936 38.15 296.669 37.375 296.669 36.475C296.669 35.325 297.061 34.375 297.844 33.625C298.644 32.875 299.769 32.5 301.219 32.5H305.844V45H303.694V40.45H302.094L297.394 45H294.694ZM301.344 38.525H303.694V34.425H301.344C299.661 34.425 298.819 35.1167 298.819 36.5C298.819 37.15 299.036 37.65 299.469 38C299.919 38.35 300.544 38.525 301.344 38.525Z" fill="black"/>
<defs>
<filter id="filter0_f_0_1" x="0.5" y="0.5" width="347" height="71" filterUnits="userSpaceOnUse" color-interpolation-filters="sRGB">
<feFlood flood-opacity="0" result="BackgroundImageFix"/>
<feBlend mode="normal" in="SourceGraphic" in2="BackgroundImageFix" result="shape"/>
<feGaussianBlur stdDeviation="2" result="effect1_foregroundBlur_0_1"/>
</filter>
<filter id="filter1_f_0_1" x="0.5" y="0.5" width="347" height="71" filterUnits="userSpaceOnUse" color-interpolation-filters="sRGB">
<feFlood flood-opacity="0" result="BackgroundImageFix"/>
<feBlend mode="normal" in="SourceGraphic" in2="BackgroundImageFix" result="shape"/>
<feGaussianBlur stdDeviation="2" result="effect1_foregroundBlur_0_1"/>
</filter>
</defs>
</svg>
