<svg width="551" height="112" viewBox="0 0 551 112" fill="none" xmlns="http://www.w3.org/2000/svg">
<g filter="url(#filter0_gf_109_2535)">
<path d="M22 86C22 86 165.769 84.5136 257.889 83.5611M257.889 83.5611C350.009 82.6087 495.067 97 513.533 79.5C532 62 530 35.8183 513.533 29.4991C497.067 23.18 313.157 21.7761 291.05 29.4991C268.943 37.2222 270.839 62.4486 257.889 83.5611Z" stroke="#394869" stroke-width="3"/>
</g>
<g filter="url(#filter1_f_109_2535)">
<path d="M22 86C22 86 165.769 84.5136 257.889 83.5611M257.889 83.5611C350.009 82.6087 495.067 97 513.533 79.5C532 62 530 35.8183 513.533 29.4991C497.067 23.18 313.157 21.7761 291.05 29.4991C268.943 37.2222 270.839 62.4486 257.889 83.5611Z" stroke="url(#paint0_linear_109_2535)" stroke-width="3"/>
</g>
<path d="M22 86C22 86 165.769 84.5136 257.889 83.5611M257.889 83.5611C350.009 82.6087 495.067 97 513.533 79.5C532 62 530 35.8183 513.533 29.4991C497.067 23.18 313.157 21.7761 291.05 29.4991C268.943 37.2222 270.839 62.4486 257.889 83.5611Z" stroke="url(#paint1_linear_109_2535)" stroke-width="3"/>
<g filter="url(#filter2_f_109_2535)">
<path d="M376.828 42.5L484.5 53.1154L340.5 65.5" stroke="#794276" stroke-width="3" stroke-linecap="round"/>
</g>
<g filter="url(#filter3_g_109_2535)">
<path d="M376.828 42.5L484.5 53.1154L340.5 65.5" stroke="#361115" stroke-width="3" stroke-linecap="round"/>
</g>
<defs>
<filter id="filter0_gf_109_2535" x="0.0856571" y="0.820215" width="549.958" height="110.807" filterUnits="userSpaceOnUse" color-interpolation-filters="sRGB">
<feFlood flood-opacity="0" result="BackgroundImageFix"/>
<feBlend mode="normal" in="SourceGraphic" in2="BackgroundImageFix" result="shape"/>
<feTurbulence type="fractalNoise" baseFrequency="0.0099999997764825821 0.0099999997764825821" numOctaves="3" seed="3177" />
<feDisplacementMap in="shape" scale="11" xChannelSelector="R" yChannelSelector="G" result="displacedImage" width="100%" height="100%" />
<feMerge result="effect1_texture_109_2535">
<feMergeNode in="displacedImage"/>
</feMerge>
<feGaussianBlur stdDeviation="10.95" result="effect2_foregroundBlur_109_2535"/>
</filter>
<filter id="filter1_f_109_2535" x="18.9857" y="19.7202" width="512.158" height="73.0068" filterUnits="userSpaceOnUse" color-interpolation-filters="sRGB">
<feFlood flood-opacity="0" result="BackgroundImageFix"/>
<feBlend mode="normal" in="SourceGraphic" in2="BackgroundImageFix" result="shape"/>
<feGaussianBlur stdDeviation="0" result="effect1_foregroundBlur_109_2535"/>
</filter>
<filter id="filter2_f_109_2535" x="335" y="37" width="153.647" height="34" filterUnits="userSpaceOnUse" color-interpolation-filters="sRGB">
<feFlood flood-opacity="0" result="BackgroundImageFix"/>
<feBlend mode="normal" in="SourceGraphic" in2="BackgroundImageFix" result="shape"/>
<feGaussianBlur stdDeviation="2" result="effect1_foregroundBlur_109_2535"/>
</filter>
<filter id="filter3_g_109_2535" x="333.5" y="35.5" width="156.647" height="37" filterUnits="userSpaceOnUse" color-interpolation-filters="sRGB">
<feFlood flood-opacity="0" result="BackgroundImageFix"/>
<feBlend mode="normal" in="SourceGraphic" in2="BackgroundImageFix" result="shape"/>
<feTurbulence type="fractalNoise" baseFrequency="0.0099999997764825821 0.0099999997764825821" numOctaves="3" seed="3177" />
<feDisplacementMap in="shape" scale="11" xChannelSelector="R" yChannelSelector="G" result="displacedImage" width="100%" height="100%" />
<feMerge result="effect1_texture_109_2535">
<feMergeNode in="displacedImage"/>
</feMerge>
</filter>
<linearGradient id="paint0_linear_109_2535" x1="146.732" y1="-1.23933e+06" x2="1023.28" y2="-1.23933e+06" gradientUnits="userSpaceOnUse">
<stop stop-color="#754D73"/>
<stop offset="0.764434" stop-color="#361115"/>
</linearGradient>
<linearGradient id="paint1_linear_109_2535" x1="109.822" y1="-1.23895e+06" x2="726.988" y2="-1.23895e+06" gradientUnits="userSpaceOnUse">
<stop stop-color="#754D73"/>
<stop offset="0.764434" stop-color="#361115"/>
</linearGradient>
</defs>
</svg>
